<?xml version="1.0" encoding="UTF-8" standalone="no"?>
<!-- Created with Inkscape (http://www.inkscape.org/) -->

<svg
   version="1.1"
   id="svg2"
   width="1044.9333"
   height="516.35999"
   viewBox="0 0 1044.9333 516.35999"
   sodipodi:docname="Drawing 2 (1).svg"
   inkscape:version="1.4 (e7c3feb1, 2024-10-09)"
   xmlns:inkscape="http://www.inkscape.org/namespaces/inkscape"
   xmlns:sodipodi="http://sodipodi.sourceforge.net/DTD/sodipodi-0.dtd"
   xmlns="http://www.w3.org/2000/svg"
   xmlns:svg="http://www.w3.org/2000/svg">
  <sodipodi:namedview
     id="namedview1"
     pagecolor="#ffffff"
     bordercolor="#000000"
     borderopacity="0.25"
     inkscape:showpageshadow="2"
     inkscape:pageopacity="0.0"
     inkscape:pagecheckerboard="0"
     inkscape:deskcolor="#d1d1d1"
     inkscape:zoom="0.51162791"
     inkscape:cx="917.65909"
     inkscape:cy="392.86364"
     inkscape:window-width="2560"
     inkscape:window-height="1311"
     inkscape:window-x="0"
     inkscape:window-y="25"
     inkscape:window-maximized="1"
     inkscape:current-layer="svg2" />
  <defs
     id="defs6">
    <clipPath
       clipPathUnits="userSpaceOnUse"
       id="clipPath20">
      <path
         d="M 2.3067e-5,0 H 1548 V 612 H 2.3067e-5 Z"
         clip-rule="evenodd"
         id="path18" />
    </clipPath>
    <clipPath
       clipPathUnits="userSpaceOnUse"
       id="clipPath36">
      <path
         d="M 2.3067e-5,0 H 1548 V 612 H 2.3067e-5 Z"
         clip-rule="evenodd"
         id="path34" />
    </clipPath>
    <clipPath
       clipPathUnits="userSpaceOnUse"
       id="clipPath48">
      <path
         d="M 2.3067e-5,0 H 1548 V 612 H 2.3067e-5 Z"
         clip-rule="evenodd"
         id="path46" />
    </clipPath>
    <clipPath
       clipPathUnits="userSpaceOnUse"
       id="clipPath64">
      <path
         d="M 2.3067e-5,0 H 1548 V 612 H 2.3067e-5 Z"
         clip-rule="evenodd"
         id="path62" />
    </clipPath>
    <clipPath
       clipPathUnits="userSpaceOnUse"
       id="clipPath76">
      <path
         d="M 2.3067e-5,0 H 1548 V 612 H 2.3067e-5 Z"
         clip-rule="evenodd"
         id="path74" />
    </clipPath>
    <clipPath
       clipPathUnits="userSpaceOnUse"
       id="clipPath88">
      <path
         d="M 2.3067e-5,0 H 1548 V 612 H 2.3067e-5 Z"
         clip-rule="evenodd"
         id="path86" />
    </clipPath>
    <clipPath
       clipPathUnits="userSpaceOnUse"
       id="clipPath104">
      <path
         d="M 2.3067e-5,0 H 1548 V 612 H 2.3067e-5 Z"
         clip-rule="evenodd"
         id="path102" />
    </clipPath>
    <clipPath
       clipPathUnits="userSpaceOnUse"
       id="clipPath116">
      <path
         d="M 2.3067e-5,0 H 1548 V 612 H 2.3067e-5 Z"
         clip-rule="evenodd"
         id="path114" />
    </clipPath>
    <clipPath
       clipPathUnits="userSpaceOnUse"
       id="clipPath132">
      <path
         d="M 2.3067e-5,0 H 1548 V 612 H 2.3067e-5 Z"
         clip-rule="evenodd"
         id="path130" />
    </clipPath>
    <clipPath
       clipPathUnits="userSpaceOnUse"
       id="clipPath144">
      <path
         d="M 2.3067e-5,0 H 1548 V 612 H 2.3067e-5 Z"
         clip-rule="evenodd"
         id="path142" />
    </clipPath>
    <clipPath
       clipPathUnits="userSpaceOnUse"
       id="clipPath160">
      <path
         d="M 2.3067e-5,0 H 1548 V 612 H 2.3067e-5 Z"
         clip-rule="evenodd"
         id="path158" />
    </clipPath>
    <clipPath
       clipPathUnits="userSpaceOnUse"
       id="clipPath172">
      <path
         d="M 2.3067e-5,0 H 1548 V 612 H 2.3067e-5 Z"
         clip-rule="evenodd"
         id="path170" />
    </clipPath>
    <clipPath
       clipPathUnits="userSpaceOnUse"
       id="clipPath184">
      <path
         d="M 2.3067e-5,0 H 1548 V 612 H 2.3067e-5 Z"
         clip-rule="evenodd"
         id="path182" />
    </clipPath>
    <clipPath
       clipPathUnits="userSpaceOnUse"
       id="clipPath204">
      <path
         d="M 2.3067e-5,0 H 1548 V 612 H 2.3067e-5 Z"
         clip-rule="evenodd"
         id="path202" />
    </clipPath>
    <clipPath
       clipPathUnits="userSpaceOnUse"
       id="clipPath216">
      <path
         d="M 2.3067e-5,0 H 1548 V 612 H 2.3067e-5 Z"
         clip-rule="evenodd"
         id="path214" />
    </clipPath>
    <clipPath
       clipPathUnits="userSpaceOnUse"
       id="clipPath232">
      <path
         d="M 2.3067e-5,0 H 1548 V 612 H 2.3067e-5 Z"
         clip-rule="evenodd"
         id="path230" />
    </clipPath>
    <clipPath
       clipPathUnits="userSpaceOnUse"
       id="clipPath244">
      <path
         d="M 2.3067e-5,0 H 1548 V 612 H 2.3067e-5 Z"
         clip-rule="evenodd"
         id="path242" />
    </clipPath>
    <clipPath
       clipPathUnits="userSpaceOnUse"
       id="clipPath260">
      <path
         d="M 2.3067e-5,0 H 1548 V 612 H 2.3067e-5 Z"
         clip-rule="evenodd"
         id="path258" />
    </clipPath>
    <clipPath
       clipPathUnits="userSpaceOnUse"
       id="clipPath276">
      <path
         d="M 2.3067e-5,0 H 1548 V 612 H 2.3067e-5 Z"
         clip-rule="evenodd"
         id="path274" />
    </clipPath>
    <clipPath
       clipPathUnits="userSpaceOnUse"
       id="clipPath288">
      <path
         d="M 2.3067e-5,0 H 1548 V 612 H 2.3067e-5 Z"
         clip-rule="evenodd"
         id="path286" />
    </clipPath>
    <clipPath
       clipPathUnits="userSpaceOnUse"
       id="clipPath300">
      <path
         d="M 2.3067e-5,0 H 1548 V 612 H 2.3067e-5 Z"
         clip-rule="evenodd"
         id="path298" />
    </clipPath>
    <clipPath
       clipPathUnits="userSpaceOnUse"
       id="clipPath312">
      <path
         d="M 2.3067e-5,0 H 1548 V 612 H 2.3067e-5 Z"
         clip-rule="evenodd"
         id="path310" />
    </clipPath>
    <clipPath
       clipPathUnits="userSpaceOnUse"
       id="clipPath324">
      <path
         d="M 2.3067e-5,0 H 1548 V 612 H 2.3067e-5 Z"
         clip-rule="evenodd"
         id="path322" />
    </clipPath>
    <clipPath
       clipPathUnits="userSpaceOnUse"
       id="clipPath336">
      <path
         d="M 2.3067e-5,0 H 1548 V 612 H 2.3067e-5 Z"
         clip-rule="evenodd"
         id="path334" />
    </clipPath>
    <clipPath
       clipPathUnits="userSpaceOnUse"
       id="clipPath352">
      <path
         d="M -3.0518e-5,612 H 1548 V 0 H -3.0518e-5"
         clip-rule="evenodd"
         id="path350" />
    </clipPath>
    <clipPath
       clipPathUnits="userSpaceOnUse"
       id="clipPath362">
      <path
         d="M -1.2207e-4,612 H 1548 V 0 H -1.2207e-4"
         clip-rule="evenodd"
         id="path360" />
    </clipPath>
    <clipPath
       clipPathUnits="userSpaceOnUse"
       id="clipPath372">
      <path
         d="M -3.0518e-5,612 H 1548 V 0 H -3.0518e-5"
         clip-rule="evenodd"
         id="path370" />
    </clipPath>
    <clipPath
       clipPathUnits="userSpaceOnUse"
       id="clipPath382">
      <path
         d="M 0,612 H 1548 V 0 H 0"
         clip-rule="evenodd"
         id="path380" />
    </clipPath>
  </defs>
  <g
     id="g8"
     transform="matrix(1.3333333,0,0,-1.3333333,-114.3,799.45998)">
    <path
       d="m 246.28,515.34 h 108 v 72 h -108 z"
       style="fill:#e5b9b5;fill-opacity:1;fill-rule:evenodd;stroke:none"
       id="path10" />
    <path
       d="m 246.28,515.34 h 108 v 72 h -108 z"
       style="fill:none;stroke:#000000;stroke-width:0.75;stroke-linecap:round;stroke-linejoin:round;stroke-miterlimit:10;stroke-dasharray:none;stroke-opacity:1"
       id="path12" />
    <g
       id="g14">
      <g
         id="g16"
         clip-path="url(#clipPath20)">
        <text
           xml:space="preserve"
           transform="matrix(1,0,0,-1,254.33,538.65)"
           style="font-variant:normal;font-weight:bold;font-size:14.275px;font-family:Calibri;-inkscape-font-specification:Calibri-Bold;writing-mode:lr-tb;fill:#000000;fill-opacity:1;fill-rule:nonzero;stroke:none"
           id="text24"><tspan
             x="0 6.7520752 14.24645 20.998526 26.965475 30.734076 37.486149 40.483898 45.722824 52.489174 55.472649 62.967026 65.964775 69.704826 77.199203 80.939247 86.192451"
             y="0"
             id="tspan22">Specialty Clinics</tspan></text>
      </g>
    </g>
    <path
       d="m 423.43,515.36 h 108 v 72 h -108 z"
       style="fill:#fee599;fill-opacity:1;fill-rule:evenodd;stroke:none"
       id="path26" />
    <path
       d="m 423.43,515.36 h 108 v 72 h -108 z"
       style="fill:none;stroke:#000000;stroke-width:0.75;stroke-linecap:round;stroke-linejoin:round;stroke-miterlimit:10;stroke-dasharray:none;stroke-opacity:1"
       id="path28" />
    <g
       id="g30">
      <g
         id="g32"
         clip-path="url(#clipPath36)">
        <text
           xml:space="preserve"
           transform="matrix(1,0,0,-1,429.25,547.08)"
           style="font-variant:normal;font-weight:bold;font-size:14.25px;font-family:Calibri;-inkscape-font-specification:Calibri-Bold;writing-mode:lr-tb;fill:#000000;fill-opacity:1;fill-rule:nonzero;stroke:none"
           id="text40"><tspan
             x="0 11.9985 19.47975 26.97525 31.478251 38.23275 41.966251 44.973 53.964748 60.71925 68.2005 71.207253 76.436996 83.932503 86.939247 96.686249"
             y="0"
             id="tspan38">Mental Health &amp; </tspan></text>
      </g>
    </g>
    <g
       id="g42">
      <g
         id="g44"
         clip-path="url(#clipPath48)">
        <text
           xml:space="preserve"
           transform="matrix(1,0,0,-1,459.23,530.25)"
           style="font-variant:normal;font-weight:bold;font-size:14.25px;font-family:Calibri;-inkscape-font-specification:Calibri-Bold;writing-mode:lr-tb;fill:#000000;fill-opacity:1;fill-rule:nonzero;stroke:none"
           id="text52"><tspan
             x="0 8.2364998 14.991 22.4865 29.240999"
             y="0"
             id="tspan50">Rehab</tspan></text>
      </g>
    </g>
    <path
       d="m 246.28,406.07 h 108 v 72 h -108 z"
       style="fill:#fee599;fill-opacity:1;fill-rule:evenodd;stroke:none"
       id="path54" />
    <path
       d="m 246.28,406.07 h 108 v 72 h -108 z"
       style="fill:none;stroke:#000000;stroke-width:0.75;stroke-linecap:round;stroke-linejoin:round;stroke-miterlimit:10;stroke-dasharray:none;stroke-opacity:1"
       id="path56" />
    <g
       id="g58">
      <g
         id="g60"
         clip-path="url(#clipPath64)">
        <text
           xml:space="preserve"
           transform="matrix(1,0,0,-1,277.43,446.08)"
           style="font-variant:normal;font-weight:bold;font-size:14.275px;font-family:Calibri;-inkscape-font-specification:Calibri-Bold;writing-mode:lr-tb;fill:#000000;fill-opacity:1;fill-rule:nonzero;stroke:none"
           id="text68"><tspan
             x="0 3.7543249 11.2487 15.745325 23.225426 27.72205 35.958725 42.7108 45.708549"
             y="0"
             id="tspan66">Internal </tspan></text>
      </g>
    </g>
    <g
       id="g70">
      <g
         id="g72"
         clip-path="url(#clipPath76)">
        <text
           xml:space="preserve"
           transform="matrix(1,0,0,-1,273.38,429.25)"
           style="font-variant:normal;font-weight:bold;font-size:14.275px;font-family:Calibri;-inkscape-font-specification:Calibri-Bold;writing-mode:lr-tb;fill:#000000;fill-opacity:1;fill-rule:nonzero;stroke:none"
           id="text80"><tspan
             x="0 12.005275 19.485374 26.97975 29.977501 35.94445 39.713051 47.207424 53.959499"
             y="0"
             id="tspan78">Medicine </tspan></text>
      </g>
    </g>
    <g
       id="g82">
      <g
         id="g84"
         clip-path="url(#clipPath88)">
        <text
           xml:space="preserve"
           transform="matrix(1,0,0,-1,262.15,412.42)"
           style="font-variant:normal;font-weight:bold;font-size:14.275px;font-family:Calibri;-inkscape-font-specification:Calibri-Bold;writing-mode:lr-tb;fill:#000000;fill-opacity:1;fill-rule:nonzero;stroke:none"
           id="text92"><tspan
             x="0 8.9932499 15.745325 23.2397 29.991776 35.230701 40.469624 51.718327 58.470402 65.964775 71.203697"
             y="0"
             id="tspan90">Departments</tspan></text>
      </g>
    </g>
    <path
       d="m 423.44,406.07 h 108 v 72 h -108 z"
       style="fill:#dbeef3;fill-opacity:1;fill-rule:evenodd;stroke:none"
       id="path94" />
    <path
       d="m 423.44,406.07 h 108 v 72 h -108 z"
       style="fill:none;stroke:#000000;stroke-width:0.75;stroke-linecap:round;stroke-linejoin:round;stroke-miterlimit:10;stroke-dasharray:none;stroke-opacity:1"
       id="path96" />
    <g
       id="g98">
      <g
         id="g100"
         clip-path="url(#clipPath104)">
        <text
           xml:space="preserve"
           transform="matrix(1,0,0,-1,454.97,437.65)"
           style="font-variant:normal;font-weight:bold;font-size:14.25px;font-family:Calibri;-inkscape-font-specification:Calibri-Bold;writing-mode:lr-tb;fill:#000000;fill-opacity:1;fill-rule:nonzero;stroke:none"
           id="text108"><tspan
             x="0 6.7402501 14.25 18.753 25.5075 29.240999 35.226002 41.980499 45.714001"
             y="0"
             id="tspan106">Surgical </tspan></text>
      </g>
    </g>
    <g
       id="g110">
      <g
         id="g112"
         clip-path="url(#clipPath116)">
        <text
           xml:space="preserve"
           transform="matrix(1,0,0,-1,439.4,420.83)"
           style="font-variant:normal;font-weight:bold;font-size:14.25px;font-family:Calibri;-inkscape-font-specification:Calibri-Bold;writing-mode:lr-tb;fill:#000000;fill-opacity:1;fill-rule:nonzero;stroke:none"
           id="text120"><tspan
             x="0 8.9775 15.74625 23.241751 29.99625 35.226002 40.45575 51.699001 58.453499 65.948997 71.178749"
             y="0"
             id="tspan118">Departments</tspan></text>
      </g>
    </g>
    <path
       d="m 600.6,515.35 h 108 v 72 h -108 z"
       style="fill:#d7e3bf;fill-opacity:1;fill-rule:evenodd;stroke:none"
       id="path122" />
    <path
       d="m 600.6,515.35 h 108 v 72 h -108 z"
       style="fill:none;stroke:#000000;stroke-width:0.75;stroke-linecap:round;stroke-linejoin:round;stroke-miterlimit:10;stroke-dasharray:none;stroke-opacity:1"
       id="path124" />
    <g
       id="g126">
      <g
         id="g128"
         clip-path="url(#clipPath132)">
        <text
           xml:space="preserve"
           transform="matrix(1,0,0,-1,621.92,555.47)"
           style="font-variant:normal;font-weight:bold;font-size:14.25px;font-family:Calibri;-inkscape-font-specification:Calibri-Bold;writing-mode:lr-tb;fill:#000000;fill-opacity:1;fill-rule:nonzero;stroke:none"
           id="text136"><tspan
             x="0 8.2364998 14.991 20.235001 25.46475 29.967751 37.463249 45.699749 56.943001 59.949749 65.948997"
             y="0"
             id="tspan134">Restroom / </tspan></text>
      </g>
    </g>
    <g
       id="g138">
      <g
         id="g140"
         clip-path="url(#clipPath144)">
        <text
           xml:space="preserve"
           transform="matrix(1,0,0,-1,638.3,538.65)"
           style="font-variant:normal;font-weight:bold;font-size:14.25px;font-family:Calibri;-inkscape-font-specification:Calibri-Bold;writing-mode:lr-tb;fill:#000000;fill-opacity:1;fill-rule:nonzero;stroke:none"
           id="text148"><tspan
             x="0 6.7544999 14.25 17.9835 20.99025 28.4715"
             y="0"
             id="tspan146">Toilet</tspan></text>
      </g>
    </g>
    <path
       d="m 600.6,406.07 h 108 v 72 h -108 z"
       style="fill:#fbd7bb;fill-opacity:1;fill-rule:evenodd;stroke:none"
       id="path150" />
    <path
       d="m 600.6,406.07 h 108 v 72 h -108 z"
       style="fill:none;stroke:#000000;stroke-width:0.75;stroke-linecap:round;stroke-linejoin:round;stroke-miterlimit:10;stroke-dasharray:none;stroke-opacity:1"
       id="path152" />
    <g
       id="g154">
      <g
         id="g156"
         clip-path="url(#clipPath160)">
        <text
           xml:space="preserve"
           transform="matrix(1,0,0,-1,623.5,446.08)"
           style="font-variant:normal;font-weight:bold;font-size:14.275px;font-family:Calibri;-inkscape-font-specification:Calibri-Bold;writing-mode:lr-tb;fill:#000000;fill-opacity:1;fill-rule:nonzero;stroke:none"
           id="text164"><tspan
             x="0 9.7641001 17.287025 22.568775 27.83625 34.616875 39.142052 44.409527 48.163849 53.445599 59.455376 63.209702"
             y="0"
             id="tspan162">Obstetrics, </tspan></text>
      </g>
    </g>
    <g
       id="g166">
      <g
         id="g168"
         clip-path="url(#clipPath172)">
        <text
           xml:space="preserve"
           transform="matrix(1,0,0,-1,619.23,429.25)"
           style="font-variant:normal;font-weight:bold;font-size:14.275px;font-family:Calibri;-inkscape-font-specification:Calibri-Bold;writing-mode:lr-tb;fill:#000000;fill-opacity:1;fill-rule:nonzero;stroke:none"
           id="text176"><tspan
             x="0 9.0218 15.78815 23.26825 30.020325 35.987274 43.524475 47.264526 54.7589 60.754398 67.520752 71.246529"
             y="0"
             id="tspan174">Gynecology, </tspan></text>
      </g>
    </g>
    <g
       id="g178">
      <g
         id="g180"
         clip-path="url(#clipPath184)">
        <text
           xml:space="preserve"
           transform="matrix(1,0,0,-1,626.38,412.42)"
           style="font-variant:normal;font-weight:bold;font-size:14.275px;font-family:Calibri;-inkscape-font-specification:Calibri-Bold;writing-mode:lr-tb;fill:#000000;fill-opacity:1;fill-rule:nonzero;stroke:none"
           id="text188"><tspan
             x="0 7.4943752 14.24645 21.740826 25.480875 32.232948 37.471874 41.968498 45.708549 51.675499"
             y="0"
             id="tspan186">Pediatrics</tspan></text>
      </g>
    </g>
    <path
       d="m 247.71,296.82 h 462.31 v 72 H 247.71 Z"
       style="fill:#d7e3bf;fill-opacity:1;fill-rule:evenodd;stroke:none"
       id="path190" />
    <path
       d="m 247.71,296.82 h 462.31 v 72 H 247.71 Z"
       style="fill:none;stroke:#000000;stroke-width:0.75;stroke-linecap:round;stroke-linejoin:round;stroke-miterlimit:10;stroke-dasharray:none;stroke-opacity:1"
       id="path192" />
    <path
       d="m 246.28,224.65 h 108 v 72 h -108 z"
       style="fill:#e5b9b5;fill-opacity:1;fill-rule:evenodd;stroke:none"
       id="path194" />
    <path
       d="m 246.28,224.65 h 108 v 72 h -108 z"
       style="fill:none;stroke:#000000;stroke-width:0.75;stroke-linecap:round;stroke-linejoin:round;stroke-miterlimit:10;stroke-dasharray:none;stroke-opacity:1"
       id="path196" />
    <g
       id="g198">
      <g
         id="g200"
         clip-path="url(#clipPath204)">
        <text
           xml:space="preserve"
           transform="matrix(1,0,0,-1,268.45,264.42)"
           style="font-variant:normal;font-weight:bold;font-size:14.275px;font-family:Calibri;-inkscape-font-specification:Calibri-Bold;writing-mode:lr-tb;fill:#000000;fill-opacity:1;fill-rule:nonzero;stroke:none"
           id="text208"><tspan
             x="0 6.7520752 18.000774 25.480875 29.977501 36.743851 44.209675 51.704048 56.957249 63.723598"
             y="0"
             id="tspan206">Emergency </tspan></text>
      </g>
    </g>
    <g
       id="g210">
      <g
         id="g212"
         clip-path="url(#clipPath216)">
        <text
           xml:space="preserve"
           transform="matrix(1,0,0,-1,283.25,247.6)"
           style="font-variant:normal;font-weight:bold;font-size:14.275px;font-family:Calibri;-inkscape-font-specification:Calibri-Bold;writing-mode:lr-tb;fill:#000000;fill-opacity:1;fill-rule:nonzero;stroke:none"
           id="text220"><tspan
             x="0 8.2652254 15.78815 23.311075"
             y="0"
             id="tspan218">Room</tspan></text>
      </g>
    </g>
    <path
       d="m 600.61,224.78 h 108 v 72 h -108 z"
       style="fill:#e5b9b5;fill-opacity:1;fill-rule:evenodd;stroke:none"
       id="path222" />
    <path
       d="m 600.61,224.78 h 108 v 72 h -108 z"
       style="fill:none;stroke:#000000;stroke-width:0.75;stroke-linecap:round;stroke-linejoin:round;stroke-miterlimit:10;stroke-dasharray:none;stroke-opacity:1"
       id="path224" />
    <g
       id="g226">
      <g
         id="g228"
         clip-path="url(#clipPath232)">
        <text
           xml:space="preserve"
           transform="matrix(1,0,0,-1,622.92,264.55)"
           style="font-variant:normal;font-weight:bold;font-size:14.275px;font-family:Calibri;-inkscape-font-specification:Calibri-Bold;writing-mode:lr-tb;fill:#000000;fill-opacity:1;fill-rule:nonzero;stroke:none"
           id="text236"><tspan
             x="0 9.7355499 17.229925 21.726549 29.220924 35.973 41.211926 44.209675 51.689774 59.184151 63.680775"
             y="0"
             id="tspan234">Outpatient </tspan></text>
      </g>
    </g>
    <g
       id="g238">
      <g
         id="g240"
         clip-path="url(#clipPath244)">
        <text
           xml:space="preserve"
           transform="matrix(1,0,0,-1,619.45,247.73)"
           style="font-variant:normal;font-weight:bold;font-size:14.25px;font-family:Calibri;-inkscape-font-specification:Calibri-Bold;writing-mode:lr-tb;fill:#000000;fill-opacity:1;fill-rule:nonzero;stroke:none"
           id="text248"><tspan
             x="0 8.9775 15.74625 23.241751 29.99625 35.226002 40.45575 51.699001 58.453499 65.948997"
             y="0"
             id="tspan246">Department</tspan></text>
      </g>
    </g>
    <path
       d="m 753.46,224.79 h 108 v 362.76 h -108 z"
       style="fill:#dbeef3;fill-opacity:1;fill-rule:evenodd;stroke:none"
       id="path250" />
    <path
       d="m 753.46,224.79 h 108 v 362.76 h -108 z"
       style="fill:none;stroke:#000000;stroke-width:0.75;stroke-linecap:round;stroke-linejoin:round;stroke-miterlimit:10;stroke-dasharray:none;stroke-opacity:1"
       id="path252" />
    <g
       id="g254">
      <g
         id="g256"
         clip-path="url(#clipPath260)">
        <text
           xml:space="preserve"
           transform="matrix(1,0,0,-1,765.25,393.3)"
           style="font-variant:normal;font-weight:bold;font-size:14.275px;font-family:Calibri;-inkscape-font-specification:Calibri-Bold;writing-mode:lr-tb;fill:#000000;fill-opacity:1;fill-rule:nonzero;stroke:none"
           id="text264"><tspan
             x="0 7.4943752 14.24645 19.485374 22.483126 29.963224 37.4576 41.954224 44.951977 53.217201 60.711575 68.205948 79.4832"
             y="0"
             id="tspan262">Patient Rooms</tspan></text>
      </g>
    </g>
    <path
       d="m 96.278,224.59 h 108 v 362.73 h -108 z"
       style="fill:#dbeef3;fill-opacity:1;fill-rule:evenodd;stroke:none"
       id="path266" />
    <path
       d="m 96.278,224.59 h 108 v 362.73 h -108 z"
       style="fill:none;stroke:#000000;stroke-width:0.75;stroke-linecap:round;stroke-linejoin:round;stroke-miterlimit:10;stroke-dasharray:none;stroke-opacity:1"
       id="path268" />
    <g
       id="g270">
      <g
         id="g272"
         clip-path="url(#clipPath276)">
        <text
           xml:space="preserve"
           transform="matrix(1,0,0,-1,113.52,401.5)"
           style="font-variant:normal;font-weight:bold;font-size:14.275px;font-family:Calibri;-inkscape-font-specification:Calibri-Bold;writing-mode:lr-tb;fill:#000000;fill-opacity:1;fill-rule:nonzero;stroke:none"
           id="text280"><tspan
             x="0 8.9932499 12.005275 19.485374 25.480875 32.97525 40.469624 46.450851 50.947475 54.687527 60.654476 63.680775 73.430603"
             y="0"
             id="tspan278">Diagnostic &amp; </tspan></text>
      </g>
    </g>
    <g
       id="g282">
      <g
         id="g284"
         clip-path="url(#clipPath288)">
        <text
           xml:space="preserve"
           transform="matrix(1,0,0,-1,127.08,384.67)"
           style="font-variant:normal;font-weight:bold;font-size:14.275px;font-family:Calibri;-inkscape-font-specification:Calibri-Bold;writing-mode:lr-tb;fill:#000000;fill-opacity:1;fill-rule:nonzero;stroke:none"
           id="text292"><tspan
             x="0 6.7520752 14.30355 21.826475 29.3494 36.872326 42.139801"
             y="0"
             id="tspan290">Support</tspan></text>
      </g>
    </g>
    <g
       id="g294">
      <g
         id="g296"
         clip-path="url(#clipPath300)">
        <text
           xml:space="preserve"
           transform="matrix(1,0,0,-1,435.27,252.4)"
           style="font-variant:normal;font-weight:bold;font-size:14.275px;font-family:Calibri;-inkscape-font-specification:Calibri-Bold;writing-mode:lr-tb;fill:#000000;fill-opacity:1;fill-rule:nonzero;stroke:none"
           id="text304"><tspan
             x="0 12.005275 19.485374 22.483126 29.977501 32.97525 39.727325 47.221699 52.460625 57.699551 64.451622 71.945999 77.912949"
             y="0"
             id="tspan302">Main Entrance</tspan></text>
      </g>
    </g>
    <g
       id="g306">
      <g
         id="g308"
         clip-path="url(#clipPath312)">
        <text
           xml:space="preserve"
           transform="matrix(1,0,0,-1,442.32,328.23)"
           style="font-variant:normal;font-weight:bold;font-size:14.25px;font-family:Calibri;-inkscape-font-specification:Calibri-Bold;writing-mode:lr-tb;fill:#000000;fill-opacity:1;fill-rule:nonzero;stroke:none"
           id="text316"><tspan
             x="0 8.2364998 14.991 21.745501 24.738001 30.723 35.226002 40.45575 47.210251 52.439999 55.446751 62.942249"
             y="0"
             id="tspan314">Registration</tspan></text>
      </g>
    </g>
    <g
       id="g318">
      <g
         id="g320"
         clip-path="url(#clipPath324)">
        <text
           xml:space="preserve"
           transform="matrix(1,0,0,-1,276.27,328.83)"
           style="font-variant:normal;font-weight:normal;font-size:12px;font-family:Calibri;-inkscape-font-specification:Calibri;writing-mode:lr-tb;fill:#000000;fill-opacity:1;fill-rule:nonzero;stroke:none"
           id="text328"><tspan
             x="0 6 12.744 17.988001 22.476 32.208 37.452 42.683998"
             y="0"
             id="tspan326">Pharmacy</tspan></text>
      </g>
    </g>
    <g
       id="g330">
      <g
         id="g332"
         clip-path="url(#clipPath336)">
        <text
           xml:space="preserve"
           transform="matrix(1,0,0,-1,617.85,328.83)"
           style="font-variant:normal;font-weight:normal;font-size:12px;font-family:Calibri;-inkscape-font-specification:Calibri;writing-mode:lr-tb;fill:#000000;fill-opacity:1;fill-rule:nonzero;stroke:none"
           id="text340"><tspan
             x="0 3.0239999 9 11.988 17.964001 23.219999 26.964001 29.952 35.952 42.695999 44.952 51.695999 58.428001 64.428001"
             y="0"
             id="tspan338">Injection Room</tspan></text>
      </g>
    </g>
    <path
       d="m 631.09,536.2 c 0,1.2 -0.97,2.17 -2.16,2.17 -1.19,0 -2.15,-0.97 -2.15,-2.17 0,-1.2 0.96,-2.18 2.15,-2.18 1.19,0 2.16,0.98 2.16,2.18 z m 9.12,-15.73 -3.22,5.67 c -0.19,0.34 -0.55,0.54 -0.93,0.55 h -4.31 c 0,0.04 0,0.09 0,0.14 l -0.62,4.86 c -0.15,1.11 -1.16,1.89 -2.26,1.74 -0.19,-0.03 -0.39,-0.08 -0.57,-0.17 -0.09,-0.02 -0.17,-0.06 -0.26,-0.1 l -4.31,-2.55 c -0.42,-0.25 -0.62,-0.77 -0.48,-1.25 l 1.29,-4.37 c 0.14,-0.46 0.55,-0.78 1.03,-0.77 0.1,-0.01 0.21,0.01 0.31,0.04 0.57,0.17 0.89,0.78 0.72,1.36 l -1.06,3.54 1.52,0.9 0.71,-3.91 c 0.17,-0.97 1,-1.67 1.98,-1.67 0.12,0 0.24,0.01 0.36,0.03 h 0.04 l 5.27,-0.03 2.92,-5.13 c 0.19,-0.34 0.55,-0.55 0.93,-0.55 0.6,0 1.08,0.49 1.08,1.09 0,0.19 -0.05,0.38 -0.14,0.55 z m -4.14,0.73 c -0.95,-3.31 -4.37,-5.22 -7.64,-4.27 -2.65,0.77 -4.47,3.22 -4.47,6.01 v 0.17 l -0.66,2.26 c -1.49,-3.76 0.33,-8.02 4.05,-9.52 3.72,-1.49 7.94,0.34 9.42,4.1 z m -14.69,9.74 v -0.02 l -0.56,2.55 c -0.04,0.19 -0.15,0.36 -0.29,0.48 -2.03,1.6 -4.87,1.6 -6.9,0 -0.15,-0.12 -0.25,-0.29 -0.29,-0.48 l -1.41,-6.36 c -0.09,-0.48 0.21,-0.96 0.69,-1.05 0.06,-0.02 0.12,-0.02 0.17,-0.02 0.41,0 0.75,0.29 0.84,0.68 l 1.29,5.84 V 515.6 h 1.72 v 10 h 0.86 v -10 h 1.73 v 16.96 l 1.33,-5.84 c 0.08,-0.39 0.42,-0.67 0.82,-0.68 0.41,-0.01 0.77,0.27 0.86,0.68 z m -2.15,6.84 c 0,1.2 -0.97,2.18 -2.16,2.18 -1.19,0 -2.15,-0.98 -2.15,-2.18 0,-1.2 0.96,-2.17 2.15,-2.17 1.19,0 2.16,0.97 2.16,2.17 z m -8.22,-11.06 c 0.03,0.13 0.03,0.26 0,0.39 l -0.61,2.72 -0.22,1.11 -0.55,2.53 c -0.05,0.19 -0.16,0.36 -0.31,0.48 -0.52,0.41 -1.1,0.72 -1.72,0.93 -1.13,0.39 -2.35,0.39 -3.48,0 -0.61,-0.21 -1.18,-0.52 -1.69,-0.93 -0.15,-0.12 -0.25,-0.29 -0.3,-0.48 l -1.4,-6.32 c -0.12,-0.49 0.17,-0.98 0.65,-1.1 0.01,-0.01 0.02,-0.01 0.04,-0.01 0.05,-0.01 0.1,-0.01 0.15,0 0.41,-0.01 0.77,0.27 0.86,0.68 l 1.29,5.84 v -3.09 l -1.29,-6.48 h 1.29 v -7.39 h 1.72 v 7.39 h 0.86 v -7.39 h 1.73 v 7.39 h 1.29 l -1.29,6.48 v 3.09 l 1.29,-5.84 c 0.09,-0.41 0.45,-0.69 0.86,-0.68 0.4,0.01 0.74,0.29 0.83,0.68 z m -2.98,11.06 c 0,1.2 -0.97,2.18 -2.16,2.18 -1.19,0 -2.15,-0.98 -2.15,-2.18 0,-1.2 0.96,-2.17 2.15,-2.17 1.19,0 2.16,0.97 2.16,2.17 z"
       style="fill:#000000;fill-opacity:1;fill-rule:evenodd;stroke:none"
       id="path342" />
    <path
       d="m 631.09,536.2 c 0,1.2 -0.97,2.17 -2.16,2.17 -1.19,0 -2.15,-0.97 -2.15,-2.17 0,-1.2 0.96,-2.18 2.15,-2.18 1.19,0 2.16,0.98 2.16,2.18 z m 9.12,-15.73 -3.22,5.67 c -0.19,0.34 -0.55,0.54 -0.93,0.55 h -4.31 c 0,0.04 0,0.09 0,0.14 l -0.62,4.86 c -0.15,1.11 -1.16,1.89 -2.26,1.74 -0.19,-0.03 -0.39,-0.08 -0.57,-0.17 -0.09,-0.02 -0.17,-0.06 -0.26,-0.1 l -4.31,-2.55 c -0.42,-0.25 -0.62,-0.77 -0.48,-1.25 l 1.29,-4.37 c 0.14,-0.46 0.55,-0.78 1.03,-0.77 0.1,-0.01 0.21,0.01 0.31,0.04 0.57,0.17 0.89,0.78 0.72,1.36 l -1.06,3.54 1.52,0.9 0.71,-3.91 c 0.17,-0.97 1,-1.67 1.98,-1.67 0.12,0 0.24,0.01 0.36,0.03 h 0.04 l 5.27,-0.03 2.92,-5.13 c 0.19,-0.34 0.55,-0.55 0.93,-0.55 0.6,0 1.08,0.49 1.08,1.09 0,0.19 -0.05,0.38 -0.14,0.55 z m -4.14,0.73 c -0.95,-3.31 -4.37,-5.22 -7.64,-4.27 -2.65,0.77 -4.47,3.22 -4.47,6.01 v 0.17 l -0.66,2.26 c -1.49,-3.76 0.33,-8.02 4.05,-9.52 3.72,-1.49 7.94,0.34 9.42,4.1 z m -14.69,9.74 v -0.02 l -0.56,2.55 c -0.04,0.19 -0.15,0.36 -0.29,0.48 -2.03,1.6 -4.87,1.6 -6.9,0 -0.15,-0.12 -0.25,-0.29 -0.29,-0.48 l -1.41,-6.36 c -0.09,-0.48 0.21,-0.96 0.69,-1.05 0.06,-0.02 0.12,-0.02 0.17,-0.02 0.41,0 0.75,0.29 0.84,0.68 l 1.29,5.84 V 515.6 h 1.72 v 10 h 0.86 v -10 h 1.73 v 16.96 l 1.33,-5.84 c 0.08,-0.39 0.42,-0.67 0.82,-0.68 0.41,-0.01 0.77,0.27 0.86,0.68 z m -2.15,6.84 c 0,1.2 -0.97,2.18 -2.16,2.18 -1.19,0 -2.15,-0.98 -2.15,-2.18 0,-1.2 0.96,-2.17 2.15,-2.17 1.19,0 2.16,0.97 2.16,2.17 z m -8.22,-11.06 c 0.03,0.13 0.03,0.26 0,0.39 l -0.61,2.72 -0.22,1.11 -0.55,2.53 c -0.05,0.19 -0.16,0.36 -0.31,0.48 -0.52,0.41 -1.1,0.72 -1.72,0.93 -1.13,0.39 -2.35,0.39 -3.48,0 -0.61,-0.21 -1.18,-0.52 -1.69,-0.93 -0.15,-0.12 -0.25,-0.29 -0.3,-0.48 l -1.4,-6.32 c -0.12,-0.49 0.17,-0.98 0.65,-1.1 0.01,-0.01 0.02,-0.01 0.04,-0.01 0.05,-0.01 0.1,-0.01 0.15,0 0.41,-0.01 0.77,0.27 0.86,0.68 l 1.29,5.84 v -3.09 l -1.29,-6.48 h 1.29 v -7.39 h 1.72 v 7.39 h 0.86 v -7.39 h 1.73 v 7.39 h 1.29 l -1.29,6.48 v 3.09 l 1.29,-5.84 c 0.09,-0.41 0.45,-0.69 0.86,-0.68 0.4,0.01 0.74,0.29 0.83,0.68 z m -2.98,11.06 c 0,1.2 -0.97,2.18 -2.16,2.18 -1.19,0 -2.15,-0.98 -2.15,-2.18 0,-1.2 0.96,-2.17 2.15,-2.17 1.19,0 2.16,0.97 2.16,2.17 z"
       style="fill:none;stroke:#000000;stroke-width:0.75;stroke-linecap:butt;stroke-linejoin:miter;stroke-miterlimit:2;stroke-dasharray:none;stroke-opacity:1"
       id="path344" />
    <g
       id="g346">
      <g
         id="g348"
         clip-path="url(#clipPath352)">
        <path
           d="M 223.17,222.14 V 586.46"
           style="fill:none;stroke:#000000;stroke-width:5;stroke-linecap:round;stroke-linejoin:round;stroke-miterlimit:2;stroke-dasharray:none;stroke-opacity:1"
           id="path354" />
      </g>
    </g>
    <g
       id="g356">
      <g
         id="g358"
         clip-path="url(#clipPath362)">
        <path
           d="M 730.56,225.17 V 589.5"
           style="fill:none;stroke:#000000;stroke-width:5;stroke-linecap:round;stroke-linejoin:round;stroke-miterlimit:2;stroke-dasharray:none;stroke-opacity:1"
           id="path364" />
      </g>
    </g>
    <g
       id="g366">
      <g
         id="g368"
         clip-path="url(#clipPath372)">
        <path
           d="M 385.92,387.16 V 588.81"
           style="fill:none;stroke:#000000;stroke-width:5;stroke-linecap:round;stroke-linejoin:round;stroke-miterlimit:2;stroke-dasharray:none;stroke-opacity:1"
           id="path374" />
      </g>
    </g>
    <g
       id="g376">
      <g
         id="g378"
         clip-path="url(#clipPath382)">
        <path
           d="M 566.82,389.32 V 590.96"
           style="fill:none;stroke:#000000;stroke-width:5;stroke-linecap:round;stroke-linejoin:round;stroke-miterlimit:2;stroke-dasharray:none;stroke-opacity:1"
           id="path384" />
      </g>
    </g>
    <path
       d="M 223.26,384.88 H 727.6"
       style="fill:none;stroke:#000000;stroke-width:5;stroke-linecap:round;stroke-linejoin:round;stroke-miterlimit:2;stroke-dasharray:none;stroke-opacity:1"
       id="path386" />
    <path
       d="M 86.1,212.7 H 869.05 V 599.22 H 86.1 Z"
       style="fill:none;stroke:#000000;stroke-width:0.75;stroke-linecap:round;stroke-linejoin:round;stroke-miterlimit:2;stroke-dasharray:none;stroke-opacity:1"
       id="path388" />
  </g>
</svg>
